<?xml version="1.0" encoding="utf-8" ?>
<svg baseProfile="full" height="96" version="1.1" width="96" xmlns="http://www.w3.org/2000/svg" xmlns:ev="http://www.w3.org/2001/xml-events" xmlns:xlink="http://www.w3.org/1999/xlink"><defs /><polygon fill="#121717" points="16,35 15,36 14,36 14,37 13,38 14,39 14,42 15,43 15,46 16,47 16,49 17,50 18,50 19,51 20,51 24,55 28,55 29,54 29,53 31,51 33,51 34,50 34,48 32,48 31,47 27,47 25,45 25,42 24,41 24,38 23,37 23,36 21,36 20,35" stroke="none" /><polygon fill="#121617" points="32,17 29,20 29,22 28,23 28,25 29,26 29,28 32,31 37,31 38,30 40,30 42,28 42,27 43,26 43,22 42,21 42,20 39,17" stroke="none" /><polygon fill="#121717" points="61,10 60,11 59,11 59,12 57,14 57,15 55,17 55,18 53,20 53,21 52,22 52,23 47,28 46,28 44,30 43,30 40,33 39,33 38,34 33,34 30,37 30,38 29,39 29,40 28,41 28,44 33,44 37,48 37,50 33,54 32,54 31,55 31,57 33,59 33,60 35,62 36,62 37,63 38,63 40,65 41,65 43,67 44,67 47,70 47,71 48,72 48,73 49,74 49,75 50,76 50,77 51,78 51,79 52,80 52,81 54,83 58,83 59,82 59,81 60,80 59,79 59,77 58,76 58,75 57,74 57,73 56,72 56,70 55,69 55,68 54,67 54,66 53,65 53,64 52,63 51,63 47,59 49,57 50,57 52,55 53,55 54,54 57,57 57,58 60,61 60,62 62,64 66,64 67,63 67,58 66,57 66,56 64,54 64,53 61,50 61,49 59,47 59,46 58,46 57,45 54,45 53,46 52,46 50,48 49,48 48,49 47,49 46,50 45,50 44,49 44,43 45,42 45,39 50,34 51,34 57,28 57,27 59,25 59,24 60,23 60,22 62,20 63,20 64,21 64,35 65,36 65,39 67,41 67,42 68,43 68,44 69,45 69,46 70,47 70,52 71,53 71,57 70,58 70,64 69,65 69,70 68,71 68,84 69,85 72,85 73,84 73,72 74,71 74,65 75,64 75,48 74,47 74,44 73,43 73,41 72,40 72,39 71,38 71,37 70,36 70,34 69,33 69,23 68,22 68,18 67,17 67,15 66,14 66,12 64,10" stroke="none" /></svg>